<mxfile host="app.diagrams.net" modified="2024-04-04T04:53:07.423Z" agent="Mozilla/5.0 (Windows NT 10.0; Win64; x64) AppleWebKit/537.36 (KHTML, like Gecko) Chrome/123.0.0.0 Safari/537.36 Edg/123.0.0.0" etag="B9kYqz2gR1v7wDmB9QnX" version="24.2.2" type="github">
  <diagram id="R2lEEEUBdFMjLlhIrx00" name="Page-1">
    <mxGraphModel dx="1178" dy="786" grid="1" gridSize="10" guides="1" tooltips="1" connect="1" arrows="1" fold="1" page="1" pageScale="1" pageWidth="850" pageHeight="1100" math="0" shadow="0" extFonts="Permanent Marker^https://fonts.googleapis.com/css?family=Permanent+Marker">
      <root>
        <mxCell id="0" />
        <mxCell id="1" parent="0" />
        <mxCell id="gb_AJWGqLQF5iVqz3lc6-2" style="edgeStyle=none;rounded=0;orthogonalLoop=1;jettySize=auto;html=1;exitX=0.25;exitY=0;exitDx=0;exitDy=0;" edge="1" parent="1" source="gb_AJWGqLQF5iVqz3lc6-1">
          <mxGeometry relative="1" as="geometry">
            <mxPoint x="230" y="380" as="targetPoint" />
          </mxGeometry>
        </mxCell>
        <mxCell id="gb_AJWGqLQF5iVqz3lc6-10" style="edgeStyle=none;rounded=0;orthogonalLoop=1;jettySize=auto;html=1;exitX=0.5;exitY=0;exitDx=0;exitDy=0;" edge="1" parent="1" source="gb_AJWGqLQF5iVqz3lc6-1">
          <mxGeometry relative="1" as="geometry">
            <mxPoint x="330" y="360" as="targetPoint" />
          </mxGeometry>
        </mxCell>
        <mxCell id="gb_AJWGqLQF5iVqz3lc6-13" style="edgeStyle=none;rounded=0;orthogonalLoop=1;jettySize=auto;html=1;exitX=0.75;exitY=1;exitDx=0;exitDy=0;" edge="1" parent="1" source="gb_AJWGqLQF5iVqz3lc6-14">
          <mxGeometry relative="1" as="geometry">
            <mxPoint x="360" y="620" as="targetPoint" />
          </mxGeometry>
        </mxCell>
        <mxCell id="gb_AJWGqLQF5iVqz3lc6-16" style="edgeStyle=none;rounded=0;orthogonalLoop=1;jettySize=auto;html=1;exitX=0.25;exitY=1;exitDx=0;exitDy=0;" edge="1" parent="1" source="gb_AJWGqLQF5iVqz3lc6-1">
          <mxGeometry relative="1" as="geometry">
            <mxPoint x="230" y="630" as="targetPoint" />
          </mxGeometry>
        </mxCell>
        <mxCell id="gb_AJWGqLQF5iVqz3lc6-19" style="edgeStyle=none;rounded=0;orthogonalLoop=1;jettySize=auto;html=1;exitX=0;exitY=0.5;exitDx=0;exitDy=0;" edge="1" parent="1" source="gb_AJWGqLQF5iVqz3lc6-1">
          <mxGeometry relative="1" as="geometry">
            <mxPoint x="140" y="489.66666666666674" as="targetPoint" />
          </mxGeometry>
        </mxCell>
        <mxCell id="gb_AJWGqLQF5iVqz3lc6-53" style="edgeStyle=none;rounded=0;orthogonalLoop=1;jettySize=auto;html=1;exitX=1;exitY=0.75;exitDx=0;exitDy=0;entryX=0;entryY=0;entryDx=0;entryDy=0;" edge="1" parent="1" source="gb_AJWGqLQF5iVqz3lc6-1" target="gb_AJWGqLQF5iVqz3lc6-49">
          <mxGeometry relative="1" as="geometry" />
        </mxCell>
        <mxCell id="gb_AJWGqLQF5iVqz3lc6-1" value="User" style="rounded=0;whiteSpace=wrap;html=1;" vertex="1" parent="1">
          <mxGeometry x="210" y="450" width="150" height="60" as="geometry" />
        </mxCell>
        <mxCell id="gb_AJWGqLQF5iVqz3lc6-4" value="Has" style="shape=rhombus;perimeter=rhombusPerimeter;whiteSpace=wrap;html=1;align=center;" vertex="1" parent="1">
          <mxGeometry x="510" y="455" width="120" height="60" as="geometry" />
        </mxCell>
        <mxCell id="gb_AJWGqLQF5iVqz3lc6-5" value="" style="line;strokeWidth=1;rotatable=0;dashed=0;labelPosition=right;align=left;verticalAlign=middle;spacingTop=0;spacingLeft=6;points=[];portConstraint=eastwest;" vertex="1" parent="1">
          <mxGeometry x="360" y="480" width="150" height="10" as="geometry" />
        </mxCell>
        <mxCell id="gb_AJWGqLQF5iVqz3lc6-7" value="" style="line;strokeWidth=1;rotatable=0;dashed=0;labelPosition=right;align=left;verticalAlign=middle;spacingTop=0;spacingLeft=6;points=[];portConstraint=eastwest;" vertex="1" parent="1">
          <mxGeometry x="630" y="480" width="60" height="10" as="geometry" />
        </mxCell>
        <mxCell id="gb_AJWGqLQF5iVqz3lc6-22" value="" style="edgeStyle=none;rounded=0;orthogonalLoop=1;jettySize=auto;html=1;" edge="1" parent="1" source="gb_AJWGqLQF5iVqz3lc6-8" target="gb_AJWGqLQF5iVqz3lc6-21">
          <mxGeometry relative="1" as="geometry" />
        </mxCell>
        <mxCell id="gb_AJWGqLQF5iVqz3lc6-23" style="edgeStyle=none;rounded=0;orthogonalLoop=1;jettySize=auto;html=1;exitX=0.25;exitY=0;exitDx=0;exitDy=0;" edge="1" parent="1" source="gb_AJWGqLQF5iVqz3lc6-24">
          <mxGeometry relative="1" as="geometry">
            <mxPoint x="660" y="370" as="targetPoint" />
          </mxGeometry>
        </mxCell>
        <mxCell id="gb_AJWGqLQF5iVqz3lc6-26" style="edgeStyle=none;rounded=0;orthogonalLoop=1;jettySize=auto;html=1;exitX=0.25;exitY=1;exitDx=0;exitDy=0;" edge="1" parent="1" source="gb_AJWGqLQF5iVqz3lc6-8">
          <mxGeometry relative="1" as="geometry">
            <mxPoint x="740" y="590" as="targetPoint" />
          </mxGeometry>
        </mxCell>
        <mxCell id="gb_AJWGqLQF5iVqz3lc6-48" style="edgeStyle=none;rounded=0;orthogonalLoop=1;jettySize=auto;html=1;exitX=0;exitY=0.75;exitDx=0;exitDy=0;" edge="1" parent="1" source="gb_AJWGqLQF5iVqz3lc6-49">
          <mxGeometry relative="1" as="geometry">
            <mxPoint x="570" y="570" as="targetPoint" />
          </mxGeometry>
        </mxCell>
        <mxCell id="gb_AJWGqLQF5iVqz3lc6-8" value="Post" style="whiteSpace=wrap;html=1;align=center;" vertex="1" parent="1">
          <mxGeometry x="690" y="470" width="120" height="35" as="geometry" />
        </mxCell>
        <mxCell id="gb_AJWGqLQF5iVqz3lc6-12" value="User Name" style="ellipse;whiteSpace=wrap;html=1;align=center;" vertex="1" parent="1">
          <mxGeometry x="280" y="320" width="100" height="40" as="geometry" />
        </mxCell>
        <mxCell id="gb_AJWGqLQF5iVqz3lc6-15" value="" style="edgeStyle=none;rounded=0;orthogonalLoop=1;jettySize=auto;html=1;exitX=0.75;exitY=1;exitDx=0;exitDy=0;" edge="1" parent="1" source="gb_AJWGqLQF5iVqz3lc6-1" target="gb_AJWGqLQF5iVqz3lc6-14">
          <mxGeometry relative="1" as="geometry">
            <mxPoint x="360" y="620" as="targetPoint" />
            <mxPoint x="330" y="520" as="sourcePoint" />
          </mxGeometry>
        </mxCell>
        <mxCell id="gb_AJWGqLQF5iVqz3lc6-14" value="Email&amp;nbsp;" style="ellipse;whiteSpace=wrap;html=1;align=center;" vertex="1" parent="1">
          <mxGeometry x="310" y="620" width="100" height="40" as="geometry" />
        </mxCell>
        <mxCell id="gb_AJWGqLQF5iVqz3lc6-17" value="Password" style="ellipse;whiteSpace=wrap;html=1;align=center;" vertex="1" parent="1">
          <mxGeometry x="180" y="630" width="100" height="40" as="geometry" />
        </mxCell>
        <mxCell id="gb_AJWGqLQF5iVqz3lc6-18" value="User_ID" style="ellipse;whiteSpace=wrap;html=1;align=center;fontStyle=4;" vertex="1" parent="1">
          <mxGeometry x="180" y="340" width="100" height="40" as="geometry" />
        </mxCell>
        <mxCell id="gb_AJWGqLQF5iVqz3lc6-20" value="Created_at" style="ellipse;whiteSpace=wrap;html=1;align=center;" vertex="1" parent="1">
          <mxGeometry x="40" y="470" width="100" height="40" as="geometry" />
        </mxCell>
        <mxCell id="gb_AJWGqLQF5iVqz3lc6-21" value="Image" style="ellipse;whiteSpace=wrap;html=1;align=center;" vertex="1" parent="1">
          <mxGeometry x="710" y="350" width="100" height="40" as="geometry" />
        </mxCell>
        <mxCell id="gb_AJWGqLQF5iVqz3lc6-25" value="" style="edgeStyle=none;rounded=0;orthogonalLoop=1;jettySize=auto;html=1;exitX=0.25;exitY=0;exitDx=0;exitDy=0;" edge="1" parent="1" source="gb_AJWGqLQF5iVqz3lc6-8" target="gb_AJWGqLQF5iVqz3lc6-24">
          <mxGeometry relative="1" as="geometry">
            <mxPoint x="660" y="370" as="targetPoint" />
            <mxPoint x="720" y="470" as="sourcePoint" />
          </mxGeometry>
        </mxCell>
        <mxCell id="gb_AJWGqLQF5iVqz3lc6-24" value="TItle&amp;nbsp;" style="ellipse;whiteSpace=wrap;html=1;align=center;" vertex="1" parent="1">
          <mxGeometry x="610" y="330" width="100" height="40" as="geometry" />
        </mxCell>
        <mxCell id="gb_AJWGqLQF5iVqz3lc6-27" value="post_id" style="ellipse;whiteSpace=wrap;html=1;align=center;fontStyle=4;" vertex="1" parent="1">
          <mxGeometry x="720" y="570" width="100" height="40" as="geometry" />
        </mxCell>
        <mxCell id="gb_AJWGqLQF5iVqz3lc6-31" style="edgeStyle=none;rounded=0;orthogonalLoop=1;jettySize=auto;html=1;exitX=0;exitY=0.5;exitDx=0;exitDy=0;entryX=0;entryY=1;entryDx=0;entryDy=0;" edge="1" parent="1" source="gb_AJWGqLQF5iVqz3lc6-29" target="gb_AJWGqLQF5iVqz3lc6-8">
          <mxGeometry relative="1" as="geometry">
            <Array as="points">
              <mxPoint x="700" y="530" />
            </Array>
          </mxGeometry>
        </mxCell>
        <mxCell id="gb_AJWGqLQF5iVqz3lc6-32" style="edgeStyle=none;rounded=0;orthogonalLoop=1;jettySize=auto;html=1;exitX=1;exitY=0.5;exitDx=0;exitDy=0;" edge="1" parent="1" source="gb_AJWGqLQF5iVqz3lc6-29">
          <mxGeometry relative="1" as="geometry">
            <mxPoint x="440" y="740" as="targetPoint" />
          </mxGeometry>
        </mxCell>
        <mxCell id="gb_AJWGqLQF5iVqz3lc6-29" value="Got" style="shape=rhombus;perimeter=rhombusPerimeter;whiteSpace=wrap;html=1;align=center;direction=south;rotation=45;" vertex="1" parent="1">
          <mxGeometry x="660" y="630" width="60" height="130" as="geometry" />
        </mxCell>
        <mxCell id="gb_AJWGqLQF5iVqz3lc6-34" value="&lt;span style=&quot;font-size: 9pt; font-family: Arial; font-variant-numeric: normal; font-variant-east-asian: normal; font-variant-alternates: normal; font-variant-position: normal; color: rgb(89, 89, 89);&quot;&gt;&lt;u&gt;comment_id&lt;/u&gt;&lt;/span&gt;" style="ellipse;whiteSpace=wrap;html=1;align=center;" vertex="1" parent="1">
          <mxGeometry x="230" y="830" width="100" height="40" as="geometry" />
        </mxCell>
        <mxCell id="gb_AJWGqLQF5iVqz3lc6-35" value="&lt;span style=&quot;font-size: 9pt; font-family: Arial; font-variant-numeric: normal; font-variant-east-asian: normal; font-variant-alternates: normal; font-variant-position: normal; color: rgb(89, 89, 89);&quot;&gt;post_id&lt;/span&gt;" style="ellipse;whiteSpace=wrap;html=1;align=center;" vertex="1" parent="1">
          <mxGeometry x="360" y="840" width="100" height="40" as="geometry" />
        </mxCell>
        <mxCell id="gb_AJWGqLQF5iVqz3lc6-36" value="&lt;span style=&quot;color: rgba(0, 0, 0, 0); font-family: monospace; font-size: 0px; text-align: start; text-wrap: nowrap;&quot;&gt;%3CmxGraphModel%3E%3Croot%3E%3CmxCell%20id%3D%220%22%2F%3E%3CmxCell%20id%3D%221%22%20parent%3D%220%22%2F%3E%3CmxCell%20id%3D%222%22%20value%3D%22%26lt%3Bspan%20style%3D%26quot%3Bfont-size%3A%209pt%3B%20font-family%3A%20Arial%3B%20font-variant-numeric%3A%20normal%3B%20font-variant-east-asian%3A%20normal%3B%20font-variant-alternates%3A%20normal%3B%20font-variant-position%3A%20normal%3B%20color%3A%20rgb(89%2C%2089%2C%2089)%3B%26quot%3B%26gt%3Bcomment_detail%26lt%3B%2Fspan%26gt%3B%22%20style%3D%22ellipse%3BwhiteSpace%3Dwrap%3Bhtml%3D1%3Balign%3Dcenter%3B%22%20vertex%3D%221%22%20parent%3D%221%22%3E%3CmxGeometry%20x%3D%22493.54%22%20y%3D%22830%22%20width%3D%22100%22%20height%3D%2240%22%20as%3D%22geometry%22%2F%3E%3C%2FmxCell%3E%3C%2Froot%3E%3C%2FmxGraphModel%3E&lt;/span&gt;&lt;span style=&quot;text-align: left; text-indent: -0.31in; background-color: initial; font-size: 9pt;&quot;&gt;&lt;span style=&quot;mso-special-format:bullet;color:#595959;mso-color-index:15;font-family:&lt;br/&gt;Arial;font-size:9.0pt&quot;&gt;○&lt;/span&gt;&lt;/span&gt;&lt;span style=&quot;text-align: left; text-indent: -0.31in; background-color: initial; font-size: 9pt; font-family: Arial; font-variant-numeric: normal; font-variant-east-asian: normal; font-variant-alternates: normal; font-variant-position: normal; color: rgb(89, 89, 89);&quot;&gt;created_at]&lt;/span&gt;" style="ellipse;whiteSpace=wrap;html=1;align=center;" vertex="1" parent="1">
          <mxGeometry x="540" y="760" width="100" height="40" as="geometry" />
        </mxCell>
        <mxCell id="gb_AJWGqLQF5iVqz3lc6-41" style="edgeStyle=none;rounded=0;orthogonalLoop=1;jettySize=auto;html=1;exitX=0.5;exitY=1;exitDx=0;exitDy=0;entryX=0.5;entryY=0;entryDx=0;entryDy=0;" edge="1" parent="1" source="gb_AJWGqLQF5iVqz3lc6-37" target="gb_AJWGqLQF5iVqz3lc6-35">
          <mxGeometry relative="1" as="geometry" />
        </mxCell>
        <mxCell id="gb_AJWGqLQF5iVqz3lc6-42" style="edgeStyle=none;rounded=0;orthogonalLoop=1;jettySize=auto;html=1;exitX=0.75;exitY=1;exitDx=0;exitDy=0;entryX=0;entryY=0;entryDx=0;entryDy=0;" edge="1" parent="1" source="gb_AJWGqLQF5iVqz3lc6-37" target="gb_AJWGqLQF5iVqz3lc6-39">
          <mxGeometry relative="1" as="geometry" />
        </mxCell>
        <mxCell id="gb_AJWGqLQF5iVqz3lc6-43" style="edgeStyle=none;rounded=0;orthogonalLoop=1;jettySize=auto;html=1;exitX=1;exitY=0.5;exitDx=0;exitDy=0;entryX=0;entryY=0;entryDx=0;entryDy=0;" edge="1" parent="1" source="gb_AJWGqLQF5iVqz3lc6-37" target="gb_AJWGqLQF5iVqz3lc6-36">
          <mxGeometry relative="1" as="geometry" />
        </mxCell>
        <mxCell id="gb_AJWGqLQF5iVqz3lc6-37" value="Comment" style="whiteSpace=wrap;html=1;align=center;" vertex="1" parent="1">
          <mxGeometry x="330" y="740" width="120" height="35" as="geometry" />
        </mxCell>
        <mxCell id="gb_AJWGqLQF5iVqz3lc6-39" value="&lt;span style=&quot;font-size: 9pt; font-family: Arial; font-variant-numeric: normal; font-variant-east-asian: normal; font-variant-alternates: normal; font-variant-position: normal; color: rgb(89, 89, 89);&quot;&gt;comment_detail&lt;/span&gt;" style="ellipse;whiteSpace=wrap;html=1;align=center;" vertex="1" parent="1">
          <mxGeometry x="503.54" y="840" width="100" height="40" as="geometry" />
        </mxCell>
        <mxCell id="gb_AJWGqLQF5iVqz3lc6-40" style="edgeStyle=none;rounded=0;orthogonalLoop=1;jettySize=auto;html=1;exitX=0.25;exitY=1;exitDx=0;exitDy=0;entryX=0.829;entryY=-0.117;entryDx=0;entryDy=0;entryPerimeter=0;" edge="1" parent="1" source="gb_AJWGqLQF5iVqz3lc6-37" target="gb_AJWGqLQF5iVqz3lc6-34">
          <mxGeometry relative="1" as="geometry" />
        </mxCell>
        <mxCell id="gb_AJWGqLQF5iVqz3lc6-52" value="" style="edgeStyle=none;rounded=0;orthogonalLoop=1;jettySize=auto;html=1;exitX=0;exitY=0.75;exitDx=0;exitDy=0;" edge="1" parent="1" source="gb_AJWGqLQF5iVqz3lc6-8" target="gb_AJWGqLQF5iVqz3lc6-49">
          <mxGeometry relative="1" as="geometry">
            <mxPoint x="570" y="570" as="targetPoint" />
            <mxPoint x="690" y="496" as="sourcePoint" />
          </mxGeometry>
        </mxCell>
        <mxCell id="gb_AJWGqLQF5iVqz3lc6-54" style="edgeStyle=none;rounded=0;orthogonalLoop=1;jettySize=auto;html=1;exitX=0.5;exitY=1;exitDx=0;exitDy=0;" edge="1" parent="1" source="gb_AJWGqLQF5iVqz3lc6-49">
          <mxGeometry relative="1" as="geometry">
            <mxPoint x="490" y="640" as="targetPoint" />
          </mxGeometry>
        </mxCell>
        <mxCell id="gb_AJWGqLQF5iVqz3lc6-56" style="edgeStyle=none;rounded=0;orthogonalLoop=1;jettySize=auto;html=1;exitX=1;exitY=1;exitDx=0;exitDy=0;" edge="1" parent="1" source="gb_AJWGqLQF5iVqz3lc6-49">
          <mxGeometry relative="1" as="geometry">
            <mxPoint x="610" y="640" as="targetPoint" />
          </mxGeometry>
        </mxCell>
        <mxCell id="gb_AJWGqLQF5iVqz3lc6-49" value="Likes" style="shape=rhombus;perimeter=rhombusPerimeter;whiteSpace=wrap;html=1;align=center;" vertex="1" parent="1">
          <mxGeometry x="483.54" y="550" width="120" height="60" as="geometry" />
        </mxCell>
        <mxCell id="gb_AJWGqLQF5iVqz3lc6-55" value="&lt;span style=&quot;text-decoration-line: underline;&quot;&gt;User_ID&lt;/span&gt;" style="ellipse;whiteSpace=wrap;html=1;align=center;" vertex="1" parent="1">
          <mxGeometry x="440" y="630" width="100" height="40" as="geometry" />
        </mxCell>
        <mxCell id="gb_AJWGqLQF5iVqz3lc6-57" value="Post_id" style="ellipse;whiteSpace=wrap;html=1;align=center;fontStyle=4;" vertex="1" parent="1">
          <mxGeometry x="560" y="630" width="100" height="40" as="geometry" />
        </mxCell>
      </root>
    </mxGraphModel>
  </diagram>
</mxfile>
